<svg width="24" height="24" viewBox="0 0 24 24" fill="none" xmlns="http://www.w3.org/2000/svg">
<path d="M11.9998 14.2468C12.5504 14.2468 13.0952 14.3602 13.6001 14.58C14.105 14.7999 14.5595 15.1217 14.9346 15.5248C15.3098 15.9282 15.5983 16.4049 15.7813 16.9245C15.9642 17.444 16.0378 17.996 15.9981 18.5453L15.7483 22.0536L15.7388 22.1298C15.6735 22.5041 15.3341 22.7754 14.947 22.748C14.5339 22.7185 14.2225 22.3599 14.252 21.9467L14.5017 18.4377V18.437C14.5266 18.0931 14.4807 17.7477 14.3662 17.4225C14.2517 17.0974 14.0715 16.799 13.8367 16.5466C13.6019 16.2942 13.317 16.0931 13.001 15.9555C12.6851 15.818 12.3443 15.7468 11.9998 15.7468C11.6551 15.7468 11.3138 15.8179 10.9978 15.9555C10.6818 16.0932 10.3969 16.2942 10.1621 16.5466C9.92732 16.799 9.74707 17.0974 9.63259 17.4225C9.53241 17.7071 9.48496 18.0071 9.49123 18.308L9.49709 18.437V18.4377L9.74831 21.9467C9.77772 22.3598 9.46631 22.7184 9.05324 22.748C8.64024 22.7774 8.28159 22.4666 8.25197 22.0536L8.00075 18.5453L7.99123 18.3388C7.98127 17.8581 8.05824 17.3791 8.21828 16.9245C8.40121 16.4049 8.68904 15.9282 9.06423 15.5248C9.43938 15.1216 9.89376 14.7999 10.3987 14.58C10.9037 14.3601 11.449 14.2468 11.9998 14.2468Z" fill="#36454F"/>
<path d="M12.0012 1.25C12.8668 1.25004 13.6406 1.52733 14.476 1.99634C15.0896 2.3408 15.7714 2.80945 16.5737 3.38354L17.4182 3.99219L18.8581 5.03296C19.8096 5.72079 20.5683 6.26839 21.1389 6.77466C21.6486 7.22694 22.0457 7.67794 22.3225 8.21753L22.4338 8.4541C22.7105 9.10373 22.7777 9.77026 22.7407 10.5378C22.7135 11.1 22.6282 11.7503 22.5136 12.5183L22.3906 13.3269L22.0896 15.2869C21.8426 16.8951 21.6473 18.1732 21.3593 19.1665C21.0648 20.1824 20.6494 20.9888 19.9084 21.6055C19.1701 22.2198 18.2907 22.4933 17.2168 22.6235C16.1617 22.7515 14.828 22.7502 13.1401 22.7502H10.8601C9.17135 22.7502 7.83724 22.7509 6.78193 22.6228C5.77511 22.5005 4.93963 22.2529 4.23091 21.7168L4.09028 21.6055C3.3491 20.9887 2.93439 20.1818 2.64009 19.1658C2.35241 18.1725 2.15751 16.8945 1.9106 15.2861L1.6103 13.3276L1.61104 13.3269C1.43647 12.1937 1.2958 11.2874 1.25947 10.5378C1.2223 9.77017 1.28897 9.10441 1.56563 8.45483C1.84195 7.80611 2.27865 7.29067 2.86128 6.77393C3.43186 6.2679 4.19023 5.72048 5.14131 5.03296L6.58125 3.99219C7.76565 3.13589 8.70542 2.45571 9.52412 1.99634C10.3602 1.52724 11.1347 1.25 12.0012 1.25ZM12.0012 2.75C11.4837 2.75 10.9667 2.90681 10.258 3.30444C9.53196 3.71183 8.67276 4.33131 7.46016 5.20801L6.02022 6.24878C5.04455 6.95408 4.35751 7.45112 3.85591 7.896C3.36635 8.3302 3.10392 8.67276 2.94624 9.04297C2.78896 9.41225 2.72651 9.83004 2.75728 10.4653C2.78103 10.9554 2.85747 11.5376 2.96968 12.2891L3.09346 13.0999L3.39302 15.0583L3.57173 16.2068C3.7411 17.2708 3.89006 18.0906 4.08076 18.749C4.32831 19.6036 4.62264 20.0968 5.04902 20.4519C5.47884 20.8092 6.03766 21.0215 6.96284 21.1338C7.90679 21.2484 9.13379 21.2502 10.8601 21.2502H13.1401C14.866 21.2502 16.0928 21.249 17.0366 21.1345C17.9613 21.0223 18.5193 20.8101 18.9489 20.4526C19.3759 20.0973 19.6707 19.6033 19.9187 18.7483C20.1731 17.8707 20.3534 16.7066 20.6064 15.0591L21.0312 12.2883C21.1431 11.5372 21.2185 10.9553 21.2421 10.4653C21.2728 9.8301 21.2112 9.41227 21.0539 9.04297C20.8956 8.67323 20.6323 8.33047 20.1435 7.89673C19.6421 7.45178 18.9553 6.95388 17.9799 6.24878L16.5393 5.20801C15.3264 4.33147 14.4678 3.71187 13.7421 3.30444C13.0338 2.90678 12.5174 2.75004 12.0012 2.75Z" fill="#36454F"/>
</svg>
